<?xml version="1.0" encoding="iso-8859-1"?>
<!-- Generator: Adobe Illustrator 19.0.0, SVG Export Plug-In . SVG Version: 6.00 Build 0)  -->
<svg version="1.1" id="Layer_1" xmlns="http://www.w3.org/2000/svg" xmlns:xlink="http://www.w3.org/1999/xlink" x="0px" y="0px"
	 viewBox="0 0 512 512" style="enable-background:new 0 0 512 512;" xml:space="preserve">
	 <style>path{fill: #fff;}</style>
<g>
	<g>
		<path d="M489.834,396.38h-19.568V93.394c0-12.241-9.555-22.106-21.796-22.106h-84.236c-12.241,0-22.528,9.865-22.528,22.106
			v302.988h-17.732V197.047c0-12.241-9.547-22.321-21.789-22.321h-84.236c-12.241,0-22.535,10.079-22.535,22.321v199.335h-17.732
			v-129.21c0-12.241-9.539-21.515-21.78-21.515H71.664c-12.241,0-22.542,9.273-22.542,21.515v129.21H22.166
			C9.924,396.382,0,406.306,0,418.547s9.924,22.166,22.166,22.166h467.669c12.241,0,22.166-9.924,22.166-22.166
			S502.077,396.38,489.834,396.38z M133.351,396.38H93.453V289.986h39.898V396.38z M279.643,396.38h-39.898V219.056h39.898V396.38z
			 M425.936,396.38h-39.898V115.617h39.898V396.38z"/>
	</g>
</g>
<g>
</g>
<g>
</g>
<g>
</g>
<g>
</g>
<g>
</g>
<g>
</g>
<g>
</g>
<g>
</g>
<g>
</g>
<g>
</g>
<g>
</g>
<g>
</g>
<g>
</g>
<g>
</g>
<g>
</g>
</svg>
