<svg height="512" viewBox="0 0 64 64" width="512" xmlns="http://www.w3.org/2000/svg"><g id="Bag"><path d="m52 18h2v2h-2z"/><path d="m20 20h2v-7a3 3 0 0 1 3-3h14a3 3 0 0 1 3 3v7h2v-7a5.006 5.006 0 0 0 -5-5h-14a5.006 5.006 0 0 0 -5 5z"/><path d="m10 18h2v2h-2z"/><path d="m4 23v5.508l12.34 9.492h11.66v-2a2 2 0 0 1 2-2h4a2 2 0 0 1 2 2v2h11.66l12.34-9.492v-5.508a1 1 0 0 0 -1-1h-54a1 1 0 0 0 -1 1z"/><path d="m30 40h4v4h-4z"/><path d="m5 60h54a1 1 0 0 0 1-1v-27.97l-11.391 8.762a.993.993 0 0 1 -.609.208h-12v4a2 2 0 0 1 -2 2h-4a2 2 0 0 1 -2-2v-4h-12a.993.993 0 0 1 -.609-.208l-11.391-8.762v27.97a1 1 0 0 0 1 1z"/><path d="m30 36h4v2h-4z"/></g></svg>