<?xml version="1.0" encoding="utf-8"?>
<!-- Generator: Adobe Illustrator 22.0.0, SVG Export Plug-In . SVG Version: 6.00 Build 0)  -->
<svg version="1.1" id="Ebene_1" xmlns="http://www.w3.org/2000/svg" xmlns:xlink="http://www.w3.org/1999/xlink" x="0px" y="0px"
	 viewBox="0 0 400 300" style="enable-background:new 0 0 400 300;" xml:space="preserve">
	 	 <style>
			path { fill: #fff; }
			path.color { fill: #c6d92f; }
		</style>
<g>
	<path class="color" d="M69.6,134c-6.9,17.8-23.6,12.4-34.6,2.4c-3.4-3.1-7-6.5-11.8-7.1c-9.4-1.3-15.6,6.8-20.1,13.8c-1.2,1.9,1.6,4.1,3.1,2.4
		c6.2-6.9,14.1-12,24.2-4.6c2.6,1.9,4.5,4.5,7.2,6.4c4.7,3.2,10.2,5.6,16,5.7c10.8,0.3,20.9-7.3,21-18.4
		C74.7,131.6,70.6,131.4,69.6,134z"/>
	<path class="color" d="M78.4,151c-8.8,8.6-19.2,14.7-32,11.6c-4.8-1.2-9-3.6-12.7-6.7c-2.8-2.4-4.6-6.1-7.6-8c-8.4-5.1-12.6,2.7-17.2,9
		c-1.3,1.7,1.4,3.4,2.8,2.2c11-9.5,12.2-2.7,20.1,3.2c5.1,3.9,11.2,6.4,17.7,7.2c13,1.5,26.2-4.2,33.4-15.1
		C84.6,151.7,80.6,148.8,78.4,151z"/>
</g>
<g>
	<path class="color" d="M383.3,134c-6.9,17.8-23.6,12.4-34.6,2.4c-3.4-3.1-7-6.5-11.8-7.1c-9.4-1.3-15.6,6.8-20.1,13.8c-1.2,1.9,1.6,4.1,3.1,2.4
		c6.2-6.9,14.1-12,24.2-4.6c2.6,1.9,4.5,4.5,7.2,6.4c4.7,3.2,10.2,5.6,16,5.7c10.8,0.3,20.9-7.3,21-18.4
		C388.4,131.6,384.3,131.4,383.3,134z"/>
	<path class="color" d="M392.1,151c-8.8,8.6-19.2,14.7-32,11.6c-4.8-1.2-9-3.6-12.7-6.7c-2.8-2.4-4.6-6.1-7.6-8c-8.4-5.1-12.6,2.7-17.2,9
		c-1.3,1.7,1.4,3.4,2.8,2.2c11-9.5,12.2-2.7,20.1,3.2c5.1,3.9,11.2,6.4,17.7,7.2c13,1.5,26.2-4.2,33.4-15.1
		C398.4,151.7,394.3,148.8,392.1,151z"/>
</g>
<g>
	<path d="M363.8,253.7c-0.2-0.5-0.5-1-0.7-1.6c0.2-0.5,0.2-1.1,0-1.7c-3.2-9.6-9.4-18.8-14.6-27.4c-5.4-9.1-11.1-17.9-17.1-26.5
		c-11.1-15.9-23.1-34.1-38.7-45.9c11.5-15.5,21.3-32.3,28.9-50c4.1-9.6,7.5-19.2,10.4-29.1c5.1-14.5,8.8-29.5,9.3-44.9
		c0.2-1.3,0.3-2.5,0.5-3.8c0.1-0.7-0.1-1.3-0.4-1.7c0-0.9,0-1.7,0-2.6c0-0.1,0-0.2,0-0.2c0.7-1.1,0.2-2.9-1.4-2.8
		c-1.7,0.1-3.5,0.2-5.2,0.3c-48.9-1.7-94.9,19.3-133.1,48.5c0-0.1-0.1-0.1-0.1-0.2c-8.5-9.2-21.7-16.1-32.5-22.3
		c-11.4-6.6-23.3-12.3-35.6-17.2c-12.3-5-25-9.1-38-12.2C84.2,9.6,71,5.9,59.2,6C57.3,6,55.4,6,53.6,6.1c-0.5,0-0.8,0.4-0.9,0.8
		c-1.2-0.3-2.6,0.4-2.7,2c-0.5,12.8,3.3,26.4,6.9,38.6c3.8,13,8.6,25.7,14.4,37.9c11.4,24.1,26.8,46.2,45.2,65.4
		c-7.1,9.3-13.8,18.7-20.1,28.3c-14.7,22.1-29.9,47-36.8,72.9c-2.1,1.1-2,4.8,0.7,5c0.9,0.3,1.8,0.5,2.7,0.8
		c0.1,0.2,0.3,0.3,0.5,0.4c7.5,2.3,17,3.4,25.1,2.8c-1.9,9.9-1.9,21.8,1.1,31.1c0.8,2.5,4.1,2.5,5.1,0.5
		c24.3-6.1,47.5-18.5,68.9-31.2c13.1-7.7,25.6-16.2,37.7-25.2c9.1,6.7,20.3,11.3,30.5,16.2c9.8,4.6,19.7,9.1,29.7,13.3
		c20.6,8.7,41.7,17,63.1,23.3c0.5,0.2,1,0.2,1.4,0.1c0.8,0.4,2,0,2-1.2c0-0.4,0-0.8,0-1.3c0.1-0.2,0.2-0.4,0.2-0.6
		c-0.1-0.5-0.1-0.9-0.2-1.4c-0.1-7.4-1.8-15.2-3.7-22.6c-0.4-2-0.7-4.1-1.1-6.1c5.3,1,10.6,1.3,16,1.3c6.3,0,13.5,0.4,19.5-1.6
		c0.9-0.1,1.7-0.2,2.6-0.3c0.1,0,0.1,0,0.1,0C362.7,256.3,364.4,255.1,363.8,253.7z M54.5,9.7c0.1,0,0.2,0.1,0.3,0.1
		c6,1.9,12.7,2.3,18.9,3.5c6.3,1.2,12.6,2.7,18.9,4.3c8.2,2.1,16.4,4.7,24.4,7.5c4.4,1.8,8.8,3.6,13.2,5.6
		c15.7,7,30.9,15.1,45.9,23.4c6.8,4.8,13.6,9.8,20.8,13.7c-14.6,11.6-28.5,24.3-41.7,37.9c-7.7-8-16.6-15.1-24.8-22.6
		c-8.8-8.1-17.5-16.2-26.1-24.4c-16.7-15.8-32.7-32.3-49.5-48C54.7,10.4,54.6,10,54.5,9.7z M78.9,82.9C69.7,64,63.8,44.6,58.1,24.8
		c-0.7-3.4-1.4-6.9-2.3-10.2C71,30.9,87.2,46.3,103.4,61.7c8.6,8.2,17.3,16.4,26.1,24.4c7.8,7.2,15.5,15,23.9,21.5
		c-11.7,12.2-22.8,25.1-33.2,38.3c-0.4-0.5-0.9-0.9-1.3-1.4C103.1,125.7,89.6,105,78.9,82.9z M90.8,254.6c-7.4-1.2-15.9-2.8-23.8-3
		c2.8-7.5,5.4-15,8.3-22.5c5.9-12.5,12-24.8,19.4-36.7c13.1-21,28.1-40.7,44.2-59.4c32-36.9,68.4-72,113.2-92.8
		c25.2-11.7,52.5-18.2,80.2-17.8c-37.2,40-78.6,75.8-118.9,112.7c-21.5,19.7-42.6,39.8-63.1,60.5c-19.6,19.9-40.2,39.9-57.3,62
		C93.1,256.1,92.4,254.8,90.8,254.6z M166.9,251.7c-23.1,14.1-47.8,24.1-72,35.8c-0.3-4.2-0.9-8.5-1.1-12.7
		c-0.2-5-0.4-10.1-0.8-15.1c0.2,0,0.4,0,0.6-0.2c21-20.6,40-43.2,60.7-64.1c20.2-20.4,40.9-40.1,62.1-59.4
		C257.1,98.9,298.7,62.8,336,22.4c0.1,0,0.2,0,0.3,0c0,0.1-0.1,0.2-0.1,0.3c-4.4,47.5-24.4,94.2-54.5,131.1
		c-15.6,19.2-34.1,35.7-52.8,51.7C209.3,222.4,189,238.2,166.9,251.7z M261.8,259.3c-9.8-4.2-19.6-8.7-29.3-13.3
		c-1-0.5-2.1-1-3.1-1.5c-7.5-4.2-14.8-8.7-22.4-12.5c6.6-5.1,13.2-10.3,19.6-15.7c8.4-7,16.9-14.2,25.1-21.5
		c21.4,20,45,38.2,67.7,56.7c-1.2,0.3-2.3,1.5-1.9,3.1c2,9,3.3,18.9,6,27.9C302.7,275.2,282,268,261.8,259.3z M340.8,252.1
		c-2.7,0-5.5,0-8.2,0c-3.6-0.4-7.3-1-10.9-1.8c-22.6-19-45-39.1-68.8-56.7c1.2-1.1,2.3-2.1,3.5-3.2c2.1,2.9,4.6,5.4,7.7,7.4
		c0.8,0.5,1.8-0.7,1-1.3c-2.7-2.1-5.2-4.6-7.4-7.2c9.4-8.8,18.4-17.9,26.6-27.8c2.1-2.5,4.1-5.1,6.1-7.7
		c12,16.1,24.9,31.4,36.7,47.6c1.8,2.5,3.6,5,5.3,7.5c3.8,5.7,7.4,11.5,10.9,17.4c4.9,8.2,8.8,17.4,14.1,25.2
		C351.9,251,346.2,252,340.8,252.1z"/>
	<path d="M119.2,137.3c-2.2-2.3-3.2-5.2-5-7.8c-0.6-0.8-1.8-0.3-1.6,0.7c0.6,3.3,3.3,5.9,5.8,7.9C119,138.6,119.8,137.9,119.2,137.3
		z"/>
	<path d="M119.7,131.7c-2.4-2.5-4.3-5.4-6.3-8.2c-0.7-1-2.2-0.2-1.7,1c1.4,3.4,3.9,6.2,6.5,8.7C119.2,134.1,120.6,132.6,119.7,131.7
		z"/>
	<path d="M76.1,24.8c-1-1.8-2.9-2.9-4.5-4.1c-1.6-1.2-3.3-2.3-5-3.4c-0.4-0.2-0.7,0.3-0.4,0.6c1.4,1.7,2.8,3.3,4.4,4.8
		c1.4,1.3,2.6,2.8,4.4,3.5C75.8,26.5,76.4,25.4,76.1,24.8z"/>
	<path d="M82.8,27.2c-2.9-2.3-5.9-4.6-8.2-7.5c-0.4-0.5-1.2,0.1-0.9,0.7c2,3.3,4.6,6.3,8.2,8C82.6,28.9,83.6,27.8,82.8,27.2z"/>
	<path d="M156.1,46.4c-2.9-3.3-6.9-4.9-11.1-5.4c-1-0.1-1.1,1.4-0.2,1.7c3.7,1.2,6.9,3.2,10.2,5.2C155.9,48.5,156.8,47.2,156.1,46.4
		z"/>
	<path d="M160,54.3c-1.1-2-3.4-3.5-5.3-4.6c-2.1-1.3-4.4-2.4-6.8-2.9c-1-0.2-1.7,1.2-0.7,1.7c1.9,1.1,3.9,2.1,5.8,3.4
		c1.8,1.3,3.3,3.2,5.2,4.2C159.4,56.7,160.6,55.5,160,54.3z"/>
	<path d="M79.2,231.4c-4.2,3.1-6.1,7.8-5.4,12.9c0.1,0.6,1.1,0.5,1.1-0.1c-0.2-4.5,1.7-8.8,5.1-11.7
		C80.6,231.9,79.8,230.9,79.2,231.4z"/>
	<path d="M81.3,232.3c-1.8,2.4-3.1,5.1-4.4,7.8c-0.5,1.2,1,2.1,1.7,1c1.7-2.5,3.3-5,4.4-7.8C83.6,232.2,82.1,231.2,81.3,232.3z"/>
	<path d="M226.4,115.5c-3.7,3-6.8,6.6-10.1,10c-0.4,0.4,0.2,1,0.6,0.6c3.5-3.2,7.2-6.2,10.3-9.8C227.7,115.7,227,115,226.4,115.5z"
		/>
	<path d="M229.7,107.3c-2.9,2.6-5.8,5.2-9,7.4c-0.8,0.6-0.1,1.8,0.8,1.3c3.6-1.9,7-4.2,9.7-7.3C231.9,107.8,230.6,106.5,229.7,107.3
		z"/>
	<path d="M289.6,31.5c-3.2,0.5-6.4,1.3-9.5,2c-0.8,0.2-0.4,1.3,0.3,1.2c3.2-0.5,6.4-1,9.6-1.7C291,32.8,290.5,31.4,289.6,31.5z"/>
	<path d="M295.7,32.5c-3.1,0.8-5.8,2.3-8.2,4.5c-0.6,0.6,0.3,1.4,0.9,0.9c2.2-1.8,4.9-3.2,7.7-4C297,33.6,296.6,32.2,295.7,32.5z"/>
	<path d="M167.3,136.3c-3,1.8-5.3,4.2-7.3,7.1c-0.4,0.5,0.5,1.2,0.9,0.7c2.2-2.4,4.7-4.6,7.3-6.7C168.9,137,168,135.9,167.3,136.3z"
		/>
	<path d="M103.8,79c-2.5-1.6-4.6-3.7-6.1-6.2c-0.7-1.1-2.4-0.1-1.8,1.1c1.6,3,3.9,5.4,6.6,7.3C103.9,82.2,105.2,79.9,103.8,79z"/>
	<path d="M165.4,232.9c-3.4,2.1-6.4,4.8-9.5,7.3c-0.5,0.4,0.2,1.4,0.8,1c3.3-2.3,6.7-4.4,9.7-7.1
		C166.9,233.5,166.1,232.4,165.4,232.9z"/>
	<path d="M166.9,223.7c-1.9,3.1-4,5.7-7.3,7.2c-0.5,0.2-0.1,1.1,0.4,0.9c3.6-1.3,6.9-3.9,8.2-7.6C168.5,223.5,167.4,223,166.9,223.7
		z"/>
	<path d="M134.9,264.4c-2.4,1.8-5.2,2.9-8.3,2.9c-0.9,0-0.9,1.3,0,1.4c3.5,0.2,6.6-0.8,9.2-3C136.6,265,135.6,263.8,134.9,264.4z"/>
	<path d="M282.3,143.4c-3.2,3.7-5.9,7.6-8.5,11.7c-0.3,0.4,0.3,0.9,0.7,0.5c3.3-3.5,6.4-7.2,9.1-11.3
		C284.1,143.6,282.9,142.7,282.3,143.4z"/>
	<path d="M280.3,134.7c-1.6,3.1-3.4,6.1-5.6,8.9c-0.6,0.7,0.3,1.6,1,1c2.9-2.4,5.1-5.6,6.1-9.3C282,134.5,280.7,133.9,280.3,134.7z"
		/>
	<path  d="M311,54.3c-2.8,2.4-5.2,5.3-7.7,8c-0.5,0.5,0.2,1.2,0.8,0.8c2.8-2.5,5.6-4.8,8.1-7.6C312.8,54.7,311.8,53.7,311,54.3z"/>
	<path d="M273.8,199.1c-2.9-2.9-6-5.7-9.1-8.3c-0.7-0.6-1.7,0.4-1,1c2.9,2.9,5.8,5.8,8.9,8.5C273.4,201,274.7,199.8,273.8,199.1z"/>
	<path d="M320.8,202.7c-2.2-2.7-4.5-5.4-7.1-7.7c-0.4-0.3-1.1,0.1-0.7,0.6c2,2.9,4.4,5.6,6.9,8.1
		C320.5,204.3,321.3,203.4,320.8,202.7z"/>
	<path d="M319.3,205.9c-2.5-2-4.7-4.5-6.4-7.3c-0.6-1-2.1-0.1-1.6,0.9c1.7,3.2,4,5.7,6.9,7.8C319,207.9,320.1,206.5,319.3,205.9z"/>
	<path d="M301.6,242.9c-1.6-1.6-3.5-2.9-5.3-4.3c-0.7-0.6-1.8,0.4-1,1c1.8,1.5,3.5,3.1,5.4,4.5C301.4,244.6,302.2,243.5,301.6,242.9
		z"/>
	<path d="M243.9,245.3c-3.7-2.7-8.1-4.6-12.5-6c-0.8-0.3-1.1,1-0.3,1.2c4.3,1.6,8.1,3.7,12,6.1C244,247.1,244.7,245.8,243.9,245.3z"
		/>
	<path d="M249.2,242.5c-3.5-1.8-7-3.4-10.6-5c-1.2-0.5-2.2,1.1-1,1.7c3.5,1.8,6.9,3.5,10.5,5.1C249.4,244.8,250.4,243.2,249.2,242.5
		z"/>
</g>
</svg>
